<svg xmlns="http://www.w3.org/2000/svg" viewBox="0 0 512 512">
  <defs>
    <linearGradient id="flameGrad" x1="0%" y1="100%" x2="100%" y2="0%">
      <stop offset="0%" style="stop-color:#FFD700;stop-opacity:1" /> {/* Gold */}
      <stop offset="100%" style="stop-color:#D4AF37;stop-opacity:1" /> {/* Dark Gold */}
    </linearGradient>
  </defs>
  <path d="M256 32C200 140 160 220 160 304c0 53 43 96 96 96s96-43 96-96c0-84-40-164-96-272zm0 336c-35.3 0-64-28.7-64-64 0-45 30-105 64-175 34 70 64 130 64 175 0 35.3-28.7 64-64 64z" fill="url(#flameGrad)"/>
  <path d="M256 448c-17.7 0-32 14.3-32 32s14.3 32 32 32 32-14.3 32-32-14.3-32-32-32z" fill="#D4AF37"/>
</svg>